<svg width="750" height="300" viewBox="0 0 750 300" fill="none" xmlns="http://www.w3.org/2000/svg">
<path fill-rule="evenodd" clip-rule="evenodd" d="M16 149.552C16 89.5997 64.6765 41 124.716 41C184.756 41 233.433 89.5997 233.433 149.552C233.433 209.505 184.756 258.105 124.716 258.105C64.6765 258.105 16 209.505 16 149.552Z" fill="#07011F" fill-opacity="0.9"/>
<path d="M124.466 209.473L68.8727 186.288L124.32 161.156L180.003 185.951L124.466 209.473V209.473Z" fill="#F28B0C"/>
<path d="M179.349 186.342L123.708 161.547L123.498 92.3385L179.139 117.134L179.349 186.342Z" fill="#F25244"/>
<path d="M124.363 161.51L68.8737 186.642L68.673 120.452L124.153 92.3011L124.363 161.51Z" fill="#F2B807"/>
<path fill-rule="evenodd" clip-rule="evenodd" d="M179.382 173.392C202.599 168.519 217.682 160.677 217.656 151.875C217.612 137.281 176.041 125.576 124.806 125.731C73.5714 125.886 32.073 137.843 32.1173 152.438C32.1434 161.035 46.5815 168.63 68.9174 173.388L68.9203 164.677C58.2868 161.737 51.8928 157.945 51.8802 153.79C51.8513 144.293 85.1632 136.494 126.284 136.369C167.405 136.244 200.764 143.842 200.793 153.338C200.807 158.044 192.636 162.332 179.385 165.477L179.382 173.392Z" fill="white"/>
<path fill-rule="evenodd" clip-rule="evenodd" d="M104.193 200.577C109.905 226.986 120.071 244.576 131.61 244.541C149.286 244.487 163.49 203.092 163.335 152.082C163.18 101.072 148.725 59.7638 131.049 59.8174C119.612 59.8521 109.629 77.1938 104.048 103.249L115.335 97.5681C119.19 83.9506 124.522 75.5329 130.436 75.5149C142.347 75.4788 152.105 109.528 152.233 151.567C152.36 193.605 142.808 227.714 130.898 227.75C124.931 227.768 119.504 219.231 115.558 205.421L104.193 200.577Z" fill="white"/>
<path d="M286 152.484V101.742C286 95.4397 287.757 90.5277 291.271 87.0059C294.878 83.3914 299.827 81.5842 306.116 81.5842H320.682V92.5667H308.474C305.33 92.5667 302.925 93.4935 301.26 95.3471C299.596 97.1079 298.763 99.5178 298.763 102.576V152.484H286Z" fill="#07011F" fill-opacity="0.9"/>
<path d="M368.41 152.484C360.549 152.484 353.612 151.047 347.601 148.174C341.682 145.209 337.011 141.084 333.589 135.802C330.259 130.426 328.594 124.17 328.594 117.034C328.594 109.99 330.028 103.688 332.895 98.1277C335.762 92.4743 339.739 88.0255 344.825 84.7817C349.912 81.5379 355.832 79.9161 362.584 79.9161C369.89 79.9161 375.948 81.4917 380.757 84.6427C385.659 87.7938 389.312 92.0571 391.717 97.4326C394.121 102.715 395.324 108.646 395.324 115.227C395.324 117.451 395.185 119.49 394.908 121.344H342.19C342.652 125.7 344.086 129.407 346.491 132.465C348.895 135.431 351.948 137.702 355.647 139.277C359.439 140.76 363.6 141.501 368.133 141.501H386.584V152.484H368.41ZM342.051 112.308H382.421C382.421 109.249 381.82 106.051 380.619 102.715C379.415 99.3787 377.381 96.552 374.514 94.235C371.647 91.8254 367.67 90.6205 362.584 90.6205C358.329 90.6205 354.676 91.7325 351.623 93.957C348.665 96.0886 346.352 98.8228 344.687 102.159C343.115 105.403 342.236 108.786 342.051 112.308Z" fill="#07011F" fill-opacity="0.9"/>
<path d="M445.866 152.484C438.559 152.484 432.039 150.908 426.304 147.757C420.57 144.606 416.038 140.389 412.709 135.107C409.379 129.731 407.715 123.707 407.715 117.034C407.715 110.361 409.379 104.383 412.709 99.1007C416.038 93.7252 420.57 89.4619 426.304 86.3108C432.039 83.1598 438.559 81.5842 445.866 81.5842H454.189V92.5667H445.449C440.732 92.5667 436.478 93.679 432.686 95.9031C428.987 98.0347 426.027 100.954 423.807 104.661C421.68 108.368 420.616 112.493 420.616 117.034C420.616 121.575 421.68 125.7 423.807 129.407C426.027 133.114 428.987 136.08 432.686 138.304C436.478 140.435 440.732 141.501 445.449 141.501H454.189V152.484H445.866Z" fill="#07011F" fill-opacity="0.9"/>
<path d="M498.182 154.152C491.245 154.152 485.279 152.53 480.286 149.286C475.384 145.95 471.591 141.501 468.909 135.941C466.228 130.287 464.887 123.985 464.887 117.034C464.887 110.083 466.366 103.827 469.326 98.2664C472.286 92.613 476.539 88.1645 482.089 84.9207C487.638 81.5843 494.298 79.9161 502.066 79.9161C509.465 79.9161 515.847 81.5379 521.211 84.7817C526.668 88.0255 530.83 92.4276 533.697 97.9885C536.657 103.549 538.136 109.759 538.136 116.617V152.484H525.234V138.026H524.957C523.57 140.621 521.674 143.17 519.269 145.672C516.864 148.174 513.904 150.213 510.391 151.789C506.968 153.364 502.899 154.152 498.182 154.152ZM501.511 143.17C506.136 143.17 510.206 142.011 513.72 139.694C517.327 137.377 520.101 134.226 522.043 130.241C524.079 126.256 525.096 121.761 525.096 116.756C525.096 111.844 524.125 107.442 522.183 103.549C520.332 99.6567 517.65 96.5983 514.135 94.3741C510.621 92.0571 506.505 90.8985 501.789 90.8985C496.795 90.8985 492.494 92.0571 488.887 94.3741C485.373 96.6912 482.644 99.8421 480.702 103.827C478.852 107.813 477.927 112.261 477.927 117.173C477.927 121.992 478.852 126.395 480.702 130.38C482.551 134.272 485.233 137.377 488.748 139.694C492.263 142.011 496.518 143.17 501.511 143.17Z" fill="#07011F" fill-opacity="0.9"/>
<path d="M558.458 152.484V51H571.223V152.484H558.458Z" fill="#07011F" fill-opacity="0.9"/>
<path d="M591.516 152.484V51H604.28V152.484H591.516Z" fill="#07011F" fill-opacity="0.9"/>
<path d="M287.531 222V183.785H304.892C309.041 183.785 312.698 184.586 315.865 186.187C319.031 187.752 321.506 189.954 323.289 192.793C325.073 195.632 325.964 198.998 325.964 202.893C325.964 206.75 325.073 210.117 323.289 212.992C321.506 215.831 319.031 218.051 315.865 219.653C312.698 221.218 309.041 222 304.892 222H287.531ZM296.375 214.739H304.455C307.003 214.739 309.204 214.266 311.061 213.32C312.953 212.337 314.409 210.954 315.428 209.171C316.483 207.387 317.011 205.295 317.011 202.893C317.011 200.454 316.483 198.361 315.428 196.614C314.409 194.831 312.953 193.466 311.061 192.52C309.204 191.537 307.003 191.046 304.455 191.046H296.375V214.739ZM346.009 222.437C342.879 222.437 340.095 221.782 337.657 220.471C335.254 219.161 333.344 217.378 331.924 215.121C330.541 212.828 329.85 210.226 329.85 207.315C329.85 204.367 330.541 201.764 331.924 199.508C333.344 197.215 335.254 195.432 337.657 194.158C340.095 192.848 342.879 192.192 346.009 192.192C349.103 192.192 351.869 192.848 354.307 194.158C356.746 195.432 358.657 197.197 360.04 199.453C361.423 201.71 362.114 204.33 362.114 207.315C362.114 210.226 361.423 212.828 360.04 215.121C358.657 217.378 356.746 219.161 354.307 220.471C351.869 221.782 349.103 222.437 346.009 222.437ZM346.009 215.449C347.429 215.449 348.702 215.121 349.831 214.466C350.959 213.811 351.851 212.883 352.506 211.682C353.161 210.445 353.488 208.989 353.488 207.315C353.488 205.604 353.161 204.148 352.506 202.947C351.851 201.746 350.959 200.818 349.831 200.163C348.702 199.508 347.429 199.18 346.009 199.18C344.59 199.18 343.316 199.508 342.188 200.163C341.06 200.818 340.15 201.746 339.458 202.947C338.803 204.148 338.475 205.604 338.475 207.315C338.475 208.989 338.803 210.445 339.458 211.682C340.15 212.883 341.06 213.811 342.188 214.466C343.316 215.121 344.59 215.449 346.009 215.449ZM382.001 222.437C378.834 222.437 376.014 221.8 373.539 220.526C371.064 219.216 369.117 217.414 367.697 215.121C366.314 212.828 365.623 210.226 365.623 207.315C365.623 204.367 366.314 201.764 367.697 199.508C369.117 197.215 371.064 195.432 373.539 194.158C376.014 192.848 378.834 192.192 382.001 192.192C385.094 192.192 387.788 192.848 390.08 194.158C392.373 195.432 394.066 197.27 395.158 199.672L388.552 203.22C387.788 201.837 386.823 200.818 385.658 200.163C384.53 199.508 383.293 199.18 381.946 199.18C380.49 199.18 379.18 199.508 378.015 200.163C376.851 200.818 375.923 201.746 375.231 202.947C374.576 204.148 374.249 205.604 374.249 207.315C374.249 209.025 374.576 210.481 375.231 211.682C375.923 212.883 376.851 213.811 378.015 214.466C379.18 215.121 380.49 215.449 381.946 215.449C383.293 215.449 384.53 215.14 385.658 214.521C386.823 213.866 387.788 212.828 388.552 211.409L395.158 215.012C394.066 217.378 392.373 219.216 390.08 220.526C387.788 221.8 385.094 222.437 382.001 222.437ZM412.454 222.437C410.015 222.437 407.831 221.964 405.902 221.017C404.01 220.071 402.536 218.633 401.48 216.705C400.425 214.739 399.897 212.246 399.897 209.225V192.629H408.414V207.97C408.414 210.408 408.923 212.21 409.942 213.374C410.998 214.503 412.472 215.067 414.364 215.067C415.675 215.067 416.839 214.794 417.858 214.248C418.877 213.666 419.678 212.792 420.26 211.627C420.843 210.426 421.134 208.934 421.134 207.151V192.629H429.65V222H421.571V213.92L423.045 216.268C422.062 218.306 420.606 219.853 418.677 220.908C416.785 221.927 414.71 222.437 412.454 222.437ZM475.154 192.192C477.484 192.192 479.54 192.666 481.323 193.612C483.143 194.522 484.563 195.941 485.582 197.87C486.637 199.763 487.165 202.201 487.165 205.185V222H478.648V206.496C478.648 204.13 478.157 202.383 477.174 201.255C476.192 200.127 474.809 199.562 473.025 199.562C471.788 199.562 470.678 199.854 469.695 200.436C468.713 200.982 467.948 201.819 467.402 202.947C466.856 204.075 466.583 205.513 466.583 207.26V222H458.067V206.496C458.067 204.13 457.576 202.383 456.593 201.255C455.647 200.127 454.282 199.562 452.499 199.562C451.261 199.562 450.151 199.854 449.168 200.436C448.186 200.982 447.421 201.819 446.875 202.947C446.33 204.075 446.057 205.513 446.057 207.26V222H437.54V192.629H445.674V200.654L444.146 198.307C445.165 196.305 446.603 194.795 448.459 193.776C450.351 192.72 452.499 192.192 454.901 192.192C457.594 192.192 459.941 192.884 461.943 194.267C463.981 195.614 465.328 197.688 465.983 200.491L462.98 199.672C463.963 197.379 465.528 195.559 467.675 194.212C469.859 192.866 472.352 192.192 475.154 192.192ZM509.588 222.437C506.24 222.437 503.292 221.782 500.744 220.471C498.233 219.161 496.285 217.378 494.902 215.121C493.519 212.828 492.828 210.226 492.828 207.315C492.828 204.367 493.501 201.764 494.848 199.508C496.231 197.215 498.105 195.432 500.471 194.158C502.837 192.848 505.512 192.192 508.496 192.192C511.371 192.192 513.955 192.811 516.248 194.049C518.577 195.25 520.415 196.997 521.762 199.289C523.109 201.546 523.782 204.257 523.782 207.424C523.782 207.751 523.764 208.133 523.727 208.57C523.691 208.971 523.655 209.353 523.618 209.717H499.761V204.749H519.142L515.866 206.223C515.866 204.694 515.557 203.366 514.938 202.237C514.319 201.109 513.464 200.236 512.372 199.617C511.28 198.962 510.006 198.634 508.551 198.634C507.095 198.634 505.803 198.962 504.675 199.617C503.583 200.236 502.727 201.127 502.109 202.292C501.49 203.42 501.181 204.767 501.181 206.332V207.642C501.181 209.244 501.526 210.663 502.218 211.9C502.946 213.101 503.947 214.029 505.22 214.685C506.531 215.303 508.059 215.613 509.806 215.613C511.371 215.613 512.736 215.376 513.901 214.903C515.102 214.43 516.194 213.72 517.176 212.774L521.707 217.687C520.361 219.216 518.668 220.399 516.63 221.236C514.592 222.036 512.245 222.437 509.588 222.437ZM547.304 192.192C549.633 192.192 551.707 192.666 553.527 193.612C555.383 194.522 556.839 195.941 557.895 197.87C558.95 199.763 559.478 202.201 559.478 205.185V222H550.961V206.496C550.961 204.13 550.434 202.383 549.378 201.255C548.359 200.127 546.903 199.562 545.011 199.562C543.664 199.562 542.445 199.854 541.353 200.436C540.298 200.982 539.461 201.837 538.842 203.002C538.259 204.166 537.968 205.659 537.968 207.478V222H529.452V192.629H537.586V200.763L536.058 198.307C537.113 196.341 538.623 194.831 540.589 193.776C542.554 192.72 544.792 192.192 547.304 192.192ZM579.208 222.437C575.75 222.437 573.057 221.563 571.128 219.816C569.199 218.033 568.235 215.394 568.235 211.9V186.133H576.751V211.791C576.751 213.029 577.079 213.993 577.734 214.685C578.389 215.34 579.281 215.667 580.409 215.667C581.756 215.667 582.902 215.303 583.848 214.575L586.141 220.581C585.268 221.199 584.212 221.672 582.975 222C581.774 222.291 580.518 222.437 579.208 222.437ZM563.704 199.835V193.284H584.067V199.835H563.704ZM608.937 222V216.268L608.392 215.012V204.749C608.392 202.929 607.827 201.51 606.699 200.491C605.607 199.471 603.915 198.962 601.622 198.962C600.057 198.962 598.51 199.217 596.982 199.726C595.489 200.199 594.216 200.854 593.16 201.692L590.103 195.741C591.704 194.613 593.633 193.739 595.89 193.121C598.146 192.502 600.439 192.192 602.768 192.192C607.245 192.192 610.721 193.248 613.196 195.359C615.671 197.47 616.908 200.763 616.908 205.24V222H608.937ZM599.984 222.437C597.691 222.437 595.726 222.055 594.088 221.29C592.45 220.49 591.195 219.416 590.321 218.069C589.448 216.723 589.011 215.212 589.011 213.538C589.011 211.791 589.43 210.263 590.267 208.952C591.14 207.642 592.505 206.623 594.361 205.895C596.217 205.131 598.638 204.749 601.622 204.749H609.429V209.717H602.55C600.548 209.717 599.165 210.044 598.401 210.699C597.673 211.354 597.309 212.173 597.309 213.156C597.309 214.248 597.728 215.121 598.565 215.776C599.438 216.395 600.621 216.705 602.113 216.705C603.533 216.705 604.807 216.377 605.935 215.722C607.063 215.03 607.882 214.029 608.392 212.719L609.702 216.65C609.083 218.542 607.955 219.98 606.317 220.963C604.679 221.945 602.568 222.437 599.984 222.437ZM636.626 222.437C633.169 222.437 630.475 221.563 628.546 219.816C626.617 218.033 625.653 215.394 625.653 211.9V186.133H634.169V211.791C634.169 213.029 634.497 213.993 635.152 214.685C635.807 215.34 636.699 215.667 637.827 215.667C639.174 215.667 640.32 215.303 641.266 214.575L643.559 220.581C642.686 221.199 641.63 221.672 640.393 222C639.192 222.291 637.936 222.437 636.626 222.437ZM621.122 199.835V193.284H641.485V199.835H621.122ZM648.34 222V192.629H656.857V222H648.34ZM652.598 188.535C651.033 188.535 649.759 188.08 648.777 187.17C647.794 186.26 647.303 185.132 647.303 183.785C647.303 182.439 647.794 181.31 648.777 180.4C649.759 179.491 651.033 179.036 652.598 179.036C654.163 179.036 655.437 179.472 656.42 180.346C657.402 181.183 657.894 182.275 657.894 183.621C657.894 185.041 657.402 186.224 656.42 187.17C655.473 188.08 654.2 188.535 652.598 188.535ZM678.736 222.437C675.606 222.437 672.822 221.782 670.384 220.471C667.981 219.161 666.071 217.378 664.651 215.121C663.268 212.828 662.577 210.226 662.577 207.315C662.577 204.367 663.268 201.764 664.651 199.508C666.071 197.215 667.981 195.432 670.384 194.158C672.822 192.848 675.606 192.192 678.736 192.192C681.83 192.192 684.596 192.848 687.034 194.158C689.473 195.432 691.383 197.197 692.767 199.453C694.15 201.71 694.841 204.33 694.841 207.315C694.841 210.226 694.15 212.828 692.767 215.121C691.383 217.378 689.473 219.161 687.034 220.471C684.596 221.782 681.83 222.437 678.736 222.437ZM678.736 215.449C680.156 215.449 681.429 215.121 682.558 214.466C683.686 213.811 684.578 212.883 685.233 211.682C685.888 210.445 686.215 208.989 686.215 207.315C686.215 205.604 685.888 204.148 685.233 202.947C684.578 201.746 683.686 200.818 682.558 200.163C681.429 199.508 680.156 199.18 678.736 199.18C677.317 199.18 676.043 199.508 674.915 200.163C673.786 200.818 672.877 201.746 672.185 202.947C671.53 204.148 671.202 205.604 671.202 207.315C671.202 208.989 671.53 210.445 672.185 211.682C672.877 212.883 673.786 213.811 674.915 214.466C676.043 215.121 677.317 215.449 678.736 215.449ZM718.385 192.192C720.715 192.192 722.789 192.666 724.609 193.612C726.465 194.522 727.921 195.941 728.976 197.87C730.032 199.763 730.56 202.201 730.56 205.185V222H722.043V206.496C722.043 204.13 721.515 202.383 720.46 201.255C719.441 200.127 717.985 199.562 716.092 199.562C714.746 199.562 713.527 199.854 712.435 200.436C711.379 200.982 710.542 201.837 709.924 203.002C709.341 204.166 709.05 205.659 709.05 207.478V222H700.534V192.629H708.668V200.763L707.139 198.307C708.195 196.341 709.705 194.831 711.67 193.776C713.636 192.72 715.874 192.192 718.385 192.192Z" fill="#1F1A35"/>
</svg>
